<svg width="100.000000" height="100.000000" viewBox="0 0 100 100" fill="none" xmlns="http://www.w3.org/2000/svg" xmlns:xlink="http://www.w3.org/1999/xlink" style="width: 48px; height: 48px;"><desc> Created with Pixso. </desc><defs><radialGradient gradientTransform="translate(32.4474 65.1156) rotate(128.932) scale(22.991 20.6919)" cx="0.000000" cy="0.000000" r="1.000000" id="paint_radial_9_3090_0" gradientUnits="userSpaceOnUse"><stop stop-color="#5ADDF8"></stop><stop stop-color="#AEBFFF"></stop><stop offset="0.329153" stop-color="#1476FF"></stop><stop offset="0.667785" stop-color="#655AF8"></stop><stop offset="0.868255" stop-color="#948CFF"></stop><stop offset="1.000000" stop-color="#D25AF8"></stop><stop offset="1.000000" stop-color="#5A8BF8"></stop></radialGradient><linearGradient x1="30.999874" y1="85.000229" x2="30.499891" y2="70.500214" id="paint_linear_9_3092_0" gradientUnits="userSpaceOnUse"><stop stop-color="#000000" stop-opacity="0.000000"></stop><stop offset="1.000000" stop-color="#000000"></stop></linearGradient><radialGradient gradientTransform="translate(26.9999 24.7118) rotate(38.3655) scale(77.7996 109.496)" cx="0.000000" cy="0.000000" r="1.000000" id="paint_radial_9_3094_0" gradientUnits="userSpaceOnUse"><stop stop-color="#5ADDF8"></stop><stop stop-color="#AEBFFF"></stop><stop offset="0.329153" stop-color="#1476FF"></stop><stop offset="0.667785" stop-color="#655AF8"></stop><stop offset="0.868255" stop-color="#948CFF"></stop><stop offset="1.000000" stop-color="#D25AF8"></stop><stop offset="1.000000" stop-color="#5A8BF8"></stop></radialGradient></defs><rect id="NEXT-LOGO-无背景渐变-右" width="100.000000" height="99.999939" transform="matrix(-1 0 0 1 100 0)" fill="#FFFFFF" fill-opacity="0"></rect><mask id="mask9_3088" mask-type="alpha" maskUnits="userSpaceOnUse" x="0.000061" y="0.000061" width="99.999939" height="99.999939"><rect id="画板 1773" width="99.999962" height="99.999947" transform="matrix(-1 0 0 1 100 6.10352e-05)" fill="#000000" fill-opacity="1.000000"></rect></mask><g mask="url(#mask9_3088)"><path id="矢量 1" d="M35.93 81.01L36 63L18 63.07L32.48 82.23C33.61 83.71 35.93 82.9 35.93 81.01Z" fill="url(#paint_radial_9_3090_0)" fill-opacity="1.000000" fill-rule="evenodd"></path><g opacity="0.100000" style="mix-blend-mode:normal;"><path id="矢量 1" d="M35.93 81.01L36 63L18 63.07L32.48 82.23C33.61 83.71 35.93 82.9 35.93 81.01Z" fill="url(#paint_linear_9_3092_0)" fill-opacity="1.000000" fill-rule="evenodd"></path></g><rect id="矩形 5" x="12.000000" y="19.000183" rx="26.999992" width="75.999977" height="53.999985" fill="url(#paint_radial_9_3094_0)" fill-opacity="1.000000"></rect><rect id="矩形 5" rx="26.499992" width="74.999977" height="52.999985" transform="matrix(-1 0 0 1 87.5 19.5002)" fill="#000000" fill-opacity="0"></rect><rect id="矩形 5" rx="26.499992" width="74.999977" height="52.999985" transform="matrix(-1 0 0 1 87.5 19.5002)" stroke="#000000" stroke-opacity="0" stroke-width="1.000000"></rect><path id="path" d="M45.39 59.06C44.22 60.05 42.9 60.66 41.43 60.89C39.95 61.12 38.57 61.04 37.28 60.65C36 60.26 34.04 58.58 34.04 58.58C34.04 58.58 29.02 54.73 29.02 45.61C29.02 36.5 33.5 32.5 33.5 32.5C33.5 32.5 34.72 31.31 36.5 31C38.29 30.68 39.43 30.98 40.66 31.33C50.89 34.23 62.38 34.33 72.58 31.33C73.81 30.98 74.91 30.93 75.89 31.17C76.87 31.42 77.71 31.89 78.42 32.59C81.65 35.81 82.87 41.06 83 45.61C83.12 50.09 81.97 55.24 78.94 58.54C78.04 59.52 76.98 60.22 75.78 60.63C74.58 61.04 73.32 61.12 71.99 60.89C70.66 60.66 69.48 60.05 68.46 59.06C68.01 58.62 67.39 58.07 66.57 57.4C65.76 56.73 64.83 56.08 63.79 55.44C62.75 54.8 61.62 54.25 60.39 53.8C59.16 53.35 57.91 53.13 56.62 53.13C55.36 53.13 54.16 53.36 53 53.83C51.85 54.29 50.79 54.84 49.82 55.48C48.86 56.12 48 56.78 47.26 57.45C46.51 58.11 45.89 58.65 45.39 59.06Z" fill="#FFFFFF" fill-opacity="1.000000" fill-rule="nonzero"></path><rect id="矩形 841" rx="2.000000" width="3.999999" height="11.999996" transform="matrix(-0.999983 0.00577157 0.00577157 0.999983 76.1109 38.0356)" fill="#1476FF" fill-opacity="1.000000"></rect><path id="合并" d="M42.96 38C43.77 37.97 44.55 38.42 44.92 39.19L48.73 47.11C49.22 48.13 48.79 49.34 47.75 49.81C46.72 50.28 45.48 49.83 44.99 48.8L42.96 44.59L40.94 48.81C40.45 49.83 39.21 50.28 38.18 49.81C37.14 49.34 36.7 48.13 37.2 47.11L41 39.19C41.37 38.42 42.16 37.98 42.96 38Z" fill="#1476FF" fill-opacity="1.000000" fill-rule="evenodd"></path></g></svg>